<?xml version="1.0" encoding="UTF-8"?><svg id="a" xmlns="http://www.w3.org/2000/svg" viewBox="0 0 511.38 88.63"><defs><style>.b{fill:#f41400;}.c{fill:#f8f8f8;}</style></defs><g><path class="c" d="M1.05,68.32L9.15,11.68H30.23c2.9,0,5.58,.38,8.04,1.13,2.46,.76,4.62,1.88,6.48,3.36,1.86,1.48,3.23,3.48,4.11,5.98,.57,1.64,.86,3.44,.86,5.39,0,.98-.08,2.01-.23,3.07l-2.73,19.06c-.36,2.53-1.09,4.84-2.17,6.94-1.08,2.1-2.41,3.86-3.98,5.28-1.57,1.42-3.37,2.62-5.39,3.61-2.02,.99-4.11,1.71-6.28,2.15-2.17,.44-4.42,.66-6.73,.66H1.05Zm16.19-13.36h7.32c1.98,0,3.74-.5,5.26-1.49s2.38-2.25,2.56-3.79l2.73-19.06c.03-.21,.04-.4,.04-.59,0-1.3-.53-2.42-1.6-3.36-1.22-1.09-2.81-1.64-4.77-1.64h-7.27l-4.28,29.92Z"/><path class="c" d="M51.84,68.32l7.89-56.64h39.45l-1.91,13.52h-24.96l-1.21,8.4h22.97l-1.76,12.73h-22.97l-1.21,8.48h24.96l-1.84,13.52H51.84Z"/><path class="c" d="M93.83,68.32L121.48,11.68h13.05l12.3,56.64h-15.35l-2.15-11.33h-15.12l-5.04,11.33h-15.35Zm25.43-24.06h8.48l-1.68-16.56h-.55l-6.25,16.56Z"/><path class="c" d="M150.55,68.32l8.09-56.64h21.08c2.9,0,5.58,.38,8.04,1.13,2.46,.76,4.62,1.88,6.48,3.36,1.86,1.48,3.24,3.48,4.12,5.98,.57,1.64,.86,3.44,.86,5.39,0,.98-.08,2.01-.23,3.07l-2.73,19.06c-.36,2.53-1.09,4.84-2.17,6.94-1.08,2.1-2.41,3.86-3.98,5.28-1.57,1.42-3.37,2.62-5.39,3.61-2.02,.99-4.11,1.71-6.28,2.15s-4.42,.66-6.73,.66h-21.15Zm16.19-13.36h7.32c1.98,0,3.74-.5,5.26-1.49s2.38-2.25,2.56-3.79l2.73-19.06c.03-.21,.04-.4,.04-.59,0-1.3-.53-2.42-1.6-3.36-1.22-1.09-2.81-1.64-4.77-1.64h-7.26l-4.28,29.92Z"/><path class="c" d="M216.02,68.32l7.89-56.64h14.34l-7.93,56.64h-14.3Z"/><path class="c" d="M239.26,68.32l7.89-56.64h13.63l10.31,24.18,3.2,11.33,.31-.08-.16-9.77,3.59-25.66h14.22l-7.89,56.64h-14.49l-9.69-22.3-3.36-11.37-.31,.08,.16,10.94-3.12,22.66h-14.3Z"/><path class="c" d="M291.48,58.96l10.23-8.48c1.2,1.73,2.84,3.08,4.94,4.05,2.1,.97,4.26,1.45,6.5,1.45,2.03,0,3.76-.37,5.2-1.12,1.43-.75,2.28-1.83,2.54-3.24,.16-.84,0-1.6-.45-2.28-.46-.68-1.15-1.24-2.07-1.67-.92-.43-1.9-.79-2.93-1.06-1.03-.27-2.17-.5-3.42-.69-2.27-.37-4.39-1.09-6.37-2.16-1.98-1.07-3.7-2.42-5.16-4.03-1.46-1.61-2.5-3.57-3.12-5.88-.37-1.31-.55-2.67-.55-4.09,0-1.04,.1-2.12,.31-3.24,.52-2.78,1.51-5.21,2.97-7.29,1.46-2.08,3.25-3.71,5.37-4.89,2.12-1.18,4.39-2.05,6.8-2.61,2.41-.56,4.97-.84,7.68-.84,3.78,0,7.17,.67,10.2,2,3.02,1.33,5.68,3.65,7.97,6.97l-10.43,7.19c-1.12-1.31-2.53-2.31-4.24-2.99-1.71-.68-3.43-1.05-5.18-1.1h-.39c-1.75-.03-3.22,.3-4.41,.98-1.3,.73-2.03,1.79-2.19,3.18-.03,.21-.04,.41-.04,.59,0,1.26,.51,2.27,1.52,3.03,1.17,.86,2.96,1.57,5.35,2.12,1.17,.21,2.26,.44,3.26,.69,1,.25,2.04,.56,3.12,.92,1.08,.37,2.06,.77,2.93,1.2,.87,.43,1.74,.95,2.6,1.55s1.6,1.26,2.23,1.96c.62,.71,1.18,1.53,1.66,2.46,.48,.93,.84,1.94,1.07,3.03,.23,1.09,.35,2.31,.35,3.65s-.14,2.79-.43,4.32c-1.02,5.34-3.68,9.42-7.99,12.23-4.31,2.81-9.63,4.22-15.96,4.22-3.62,0-7.26-.89-10.92-2.67-3.66-1.78-6.52-4.27-8.57-7.47Z"/><path class="c" d="M338.83,68.32l7.89-56.64h14.34l-7.93,56.64h-14.3Z"/><path class="c" d="M362.07,68.32l8.09-56.64h21.08c2.9,0,5.58,.38,8.04,1.13,2.46,.76,4.62,1.88,6.48,3.36,1.86,1.48,3.24,3.48,4.12,5.98,.57,1.64,.86,3.44,.86,5.39,0,.98-.08,2.01-.23,3.07l-2.73,19.06c-.36,2.53-1.09,4.84-2.17,6.94-1.08,2.1-2.41,3.86-3.98,5.28-1.57,1.42-3.37,2.62-5.39,3.61-2.02,.99-4.11,1.71-6.28,2.15s-4.42,.66-6.73,.66h-21.15Zm16.19-13.36h7.32c1.98,0,3.74-.5,5.26-1.49s2.38-2.25,2.56-3.79l2.73-19.06c.03-.21,.04-.4,.04-.59,0-1.3-.53-2.42-1.6-3.36-1.22-1.09-2.81-1.64-4.77-1.64h-7.26l-4.28,29.92Z"/><path class="c" d="M412.85,68.32l7.89-56.64h39.45l-1.91,13.52h-24.96l-1.21,8.4h22.97l-1.76,12.73h-22.97l-1.21,8.48h24.96l-1.84,13.52h-39.41Z"/></g><g><path class="b" d="M457.94,64.77c.13-.97,.55-1.79,1.27-2.46,.72-.67,1.53-1,2.44-1s1.65,.34,2.21,1.01,.77,1.49,.64,2.45c-.13,.98-.56,1.82-1.29,2.51-.73,.69-1.56,1.04-2.47,1.04s-1.64-.35-2.18-1.04c-.54-.69-.75-1.53-.62-2.51Z"/><path class="b" d="M468.21,48.99l.82-5.76h19.24l-.82,5.76h-6.52l-2.57,19.12h-6.17l2.55-19.12h-6.52Z"/><path class="b" d="M488.33,43.23h6.56l2.15,12.15,.35,5.93h.07l1.85-5.89,5.49-12.18h6.57l-12.1,24.88h-5.61l-5.34-24.88Z"/></g></svg>